<svg xmlns="http://www.w3.org/2000/svg" viewBox="0 0 100 100"><defs><style>.cls-1{fill:#554561;}.cls-2{fill:#fff;}.cls-3{fill:#ed6000;}</style></defs><title>EN</title><g id="Layer_2" data-name="Layer 2"><g id="Layer_1-2" data-name="Layer 1"><polygon class="cls-1" points="76.39 43.16 76.39 43.16 99.52 43.16 99.52 43.16 76.39 43.16"/><path class="cls-1" d="M98.6,38.24A50.17,50.17,0,0,0,96,30.44l-12,7.8Z"/><path class="cls-1" d="M88.08,17.61A50,50,0,0,0,64,2V33.19Z"/><path class="cls-1" d="M3.76,31A49.78,49.78,0,0,0,1.4,38.24H15Z"/><path class="cls-1" d="M37.72,1.52A50,50,0,0,0,11.55,18L37.72,35Z"/><path class="cls-1" d="M12.72,83.31a50,50,0,0,0,25,15.17V67.1Z"/><path class="cls-1" d="M95.29,71.2a49.21,49.21,0,0,0,2.55-6.64H85.05Z"/><path class="cls-1" d="M2.16,64.56a49.28,49.28,0,0,0,2.32,6.11l9.43-6.11Z"/><path class="cls-1" d="M64,98A50.1,50.1,0,0,0,86.9,83.74L64,68.92Z"/><polygon class="cls-1" points="22.56 43.16 0.48 43.16 0.48 43.16 22.56 43.16 22.56 43.16"/><path class="cls-2" d="M79.24,64.56,93.85,74c.51-.93,1-1.87,1.44-2.83L85.05,64.56Z"/><path class="cls-2" d="M64,64.56v4.36L86.9,83.74a50.89,50.89,0,0,0,4.38-5.53L70.21,64.56Z"/><path class="cls-3" d="M70.21,64.56,91.28,78.21q1.38-2,2.57-4.18L79.24,64.56Z"/><path class="cls-2" d="M37.72,38.24V35L11.55,18a50.52,50.52,0,0,0-3.81,5.25l23.09,15Z"/><polygon class="cls-2" points="22.56 43.16 22.56 43.16 29.38 43.16 29.38 43.16 22.56 43.16"/><path class="cls-2" d="M21.79,38.24,5.32,27.57c-.56,1.11-1.09,2.24-1.56,3.4L15,38.24Z"/><path class="cls-3" d="M30.83,38.24l-23.09-15q-1.3,2.07-2.42,4.28L21.79,38.24Z"/><rect class="cls-3" x="29.38" y="43.16" width="8.35" transform="translate(-20.9 48.04) rotate(-57.26)"/><path class="cls-2" d="M37.72,64.56h-9L8.4,77.74a49.63,49.63,0,0,0,4.32,5.57l25-16.21Z"/><path class="cls-2" d="M13.91,64.56,4.48,70.67c.44,1,.9,1.92,1.4,2.85l13.83-9Z"/><path class="cls-3" d="M19.71,64.56l-13.83,9A48.44,48.44,0,0,0,8.4,77.74L28.74,64.56Z"/><path class="cls-2" d="M64,38.24h4.09L92,22.81a49.38,49.38,0,0,0-3.87-5.2L64,33.19Z"/><polygon class="cls-2" points="69.58 43.16 76.39 43.16 76.39 43.16 69.58 43.16 69.58 43.16"/><path class="cls-2" d="M84,38.24l12-7.8c-.49-1.15-1-2.28-1.61-3.38L77.16,38.24Z"/><path class="cls-3" d="M77.16,38.24,94.42,27.06A48.47,48.47,0,0,0,92,22.81L68.13,38.24Z"/><rect class="cls-3" x="64.04" y="43.16" width="5.54"/><path class="cls-2" d="M42.64,59.65H.94a50.3,50.3,0,0,0,1.22,4.91H37.72V98.48c1.61.4,3.25.73,4.92,1V59.65Z"/><path class="cls-2" d="M59.13,59.65v39.5A48,48,0,0,0,64,98V64.56h33.8a50.3,50.3,0,0,0,1.22-4.91Z"/><path class="cls-2" d="M29.38,43.16H42.64V.54c-1.67.25-3.31.58-4.92,1V38.24H1.4C1,39.85.71,41.49.48,43.16h28.9Z"/><path class="cls-2" d="M59.13,38.24v4.92H99.52c-.23-1.67-.54-3.31-.92-4.92H64V2A48,48,0,0,0,59.13.85Z"/><path class="cls-3" d="M69.58,43.16H59.13V.85A49.93,49.93,0,0,0,50,0a51,51,0,0,0-7.36.54V43.16H.48A49.57,49.57,0,0,0,.94,59.65h41.7V99.46A51,51,0,0,0,50,100a49.93,49.93,0,0,0,9.13-.85V59.65H99.06a49.57,49.57,0,0,0,.46-16.49H69.58Z"/></g></g></svg>