<svg width="16" height="23" viewBox="0 0 16 23" fill="none" xmlns="http://www.w3.org/2000/svg">
<path d="M3.61547 7.26472L3.61527 7.26456C3.09668 6.82533 3.39898 6.02247 4.03444 5.96813L4.0353 5.96806L6.1555 5.79048L6.98107 3.88141L6.98136 3.88075C7.23961 3.28594 8.0886 3.28594 8.34684 3.88075L8.34713 3.88141L9.17271 5.79048L11.2927 5.96804L11.2929 5.96806L11.2512 6.46632L3.61547 7.26472ZM3.61547 7.26472L5.21549 8.61847L4.73648 10.6288M3.61547 7.26472L4.73648 10.6288M9.48745 11.4324L9.48856 11.4331C10.0261 11.7504 10.7492 11.2909 10.5912 10.6289L9.48745 11.4324ZM9.48745 11.4324L7.66384 10.3579L5.84017 11.4328L9.48745 11.4324ZM4.73648 10.6288C4.57781 11.2937 5.30365 11.7493 5.8397 11.433L4.73648 10.6288ZM4.30265 13.9525V13.6622L4.05053 13.5182C1.92189 12.3032 0.5 10.0531 0.5 7.48559C0.5 3.63851 3.69612 0.5 7.66382 0.5C11.631 0.5 14.8276 3.63854 14.8276 7.48559C14.8276 10.0535 13.4053 12.3031 11.2771 13.5183L11.025 13.6622V13.9525V21.3504L8.02687 19.4844L8.02584 19.4837C7.78294 19.3334 7.47377 19.3341 7.23165 19.4879L4.30265 21.3423V13.9525ZM11.4154 21.5934L11.415 21.5932C11.4153 21.5933 11.4156 21.5935 11.4158 21.5936L11.4154 21.5934ZM11.7122 7.26472L11.7131 7.26391L10.5911 10.6285L10.1121 8.61847L11.7122 7.26472Z" fill="#5B5550" stroke="#5B5550"/>
</svg>
