<svg width="14" height="23" viewBox="0 0 14 23" fill="none" xmlns="http://www.w3.org/2000/svg">
<path d="M6.12664 13.4437V13.0216L5.71054 12.9508C2.7521 12.4472 0.5 9.87114 0.5 6.77005C0.5 3.30666 3.30666 0.5 6.77006 0.5C10.2329 0.5 13.0401 3.30669 13.0401 6.77005C13.0401 9.8711 10.7875 12.4472 7.82955 12.9508L7.41347 13.0216V13.4437V21.1242C7.41347 21.4797 7.12548 21.7677 6.77006 21.7677C6.41464 21.7677 6.12664 21.4797 6.12664 21.1242V13.4437ZM1.66659 6.77005C1.66659 9.58869 3.95142 11.8735 6.77006 11.8735C9.58869 11.8735 11.8735 9.58869 11.8735 6.77005C11.8735 3.95145 9.58927 1.66659 6.77006 1.66659C3.95084 1.66659 1.66659 3.95145 1.66659 6.77005Z" fill="#5B5550" stroke="#5B5550"/>
<path d="M7.22719 4.78662L7.22766 4.78673C7.74946 4.90709 8.2098 5.23578 8.49531 5.69113L7.22719 4.78662ZM7.22719 4.78662C7.01005 4.73675 6.87478 4.52048 6.92445 4.30418M7.22719 4.78662L6.92445 4.30418M9.04974 5.81865L9.0504 5.81823C9.23903 5.69997 9.29591 5.4517 9.17781 5.2633L9.04974 5.81865ZM9.04974 5.81865C8.9823 5.86107 8.90919 5.88053 8.83771 5.88053C8.70237 5.88053 8.57206 5.8133 8.49539 5.69127L9.04974 5.81865ZM6.92445 4.30418C6.9742 4.08754 7.19026 3.95193 7.40741 4.00155M6.92445 4.30418L7.40741 4.00155M7.40741 4.00155C8.13304 4.16788 8.7799 4.62867 9.1778 5.26328L7.40741 4.00155Z" fill="#5B5550" stroke="#5B5550"/>
</svg>
